<svg xmlns="http://www.w3.org/2000/svg" viewBox="0 0 200 240" fill="#1a7a3a">
  <!-- 3つのドット（左側） -->
  <rect x="10" y="100" width="18" height="18" rx="4"/>
  <rect x="10" y="128" width="18" height="18" rx="4"/>
  <rect x="10" y="156" width="18" height="18" rx="4"/>
  <!-- Dの縦棒 -->
  <path d="M44,20 L44,220 Q44,230 54,230 L64,230 Q74,230 74,220 L74,20 Q74,10 64,10 L54,10 Q44,10 44,20 Z"/>
  <!-- Dの丸み部分 -->
  <path d="M74,30 L100,30 Q190,30 190,120 Q190,210 100,210 L74,210 L74,180 L100,180 Q155,180 155,120 Q155,60 100,60 L74,60 Z"/>
</svg>
